<?xml version="1.0" standalone="no"?>
<!DOCTYPE svg PUBLIC "-//W3C//DTD SVG 20010904//EN"
 "http://www.w3.org/TR/2001/REC-SVG-20010904/DTD/svg10.dtd">
<svg version="1.0" xmlns="http://www.w3.org/2000/svg"
 width="459.000000pt" height="458.000000pt" viewBox="0 0 459.000000 458.000000"
 preserveAspectRatio="xMidYMid meet">

<g transform="translate(0.000000,458.000000) scale(0.100000,-0.100000)"
fill="#000000" stroke="none">
<path d="M30 2290 l0 -2270 2270 0 2270 0 0 2270 0 2270 -2270 0 -2270 0 0
-2270z m2346 1136 c25 -25 34 -43 34 -67 0 -35 -32 -99 -50 -99 -18 0 -10 -19
20 -48 17 -16 30 -33 30 -38 0 -5 10 -21 23 -35 17 -20 38 -29 92 -38 179 -31
364 -173 444 -341 23 -47 47 -109 53 -139 10 -39 19 -56 36 -64 41 -19 22 -27
-65 -27 -56 0 -84 -3 -77 -10 5 -5 81 -11 169 -12 143 -3 160 -5 163 -21 3
-12 -9 -23 -40 -37 -24 -11 -52 -20 -63 -20 -11 0 -41 -11 -67 -24 l-48 -24
46 -51 c25 -28 52 -51 59 -51 27 0 25 -35 -6 -99 -43 -87 -152 -196 -236 -236
-48 -22 -60 -32 -51 -42 8 -10 7 -13 -5 -13 -14 0 -77 63 -77 78 0 4 7 17 15
29 14 20 13 22 -22 34 -50 16 -225 5 -323 -21 -110 -29 -132 -27 -194 20 -48
36 -159 90 -187 90 -6 0 -56 22 -112 49 -129 63 -227 98 -297 107 -77 9 -92
19 -84 52 4 15 11 32 16 39 7 9 0 16 -25 27 -19 7 -38 19 -41 25 -4 6 -19 11
-34 12 -49 1 -117 33 -117 54 0 20 10 20 428 23 273 1 427 6 427 12 0 6 -125
10 -346 10 -307 0 -345 2 -334 15 7 8 18 15 25 15 7 0 16 17 20 38 33 179 176
364 348 450 65 33 163 62 207 62 18 0 31 8 40 25 7 14 17 25 22 25 4 0 8 5 8
10 0 6 11 23 25 38 29 31 31 45 8 63 -55 46 -45 140 19 176 43 23 87 16 124
-21z m1052 -2044 l3 -153 -33 3 -33 3 -3 143 c-2 89 -6 141 -12 137 -6 -3 -10
-2 -10 4 0 13 20 20 55 18 l30 -2 3 -153z m-2929 133 c47 -24 49 -98 5 -123
-16 -9 -16 -12 -4 -27 7 -9 32 -48 54 -88 23 -39 51 -77 64 -83 20 -10 21 -12
7 -18 -9 -3 -32 -6 -50 -6 -39 0 -47 8 -111 125 l-43 80 -1 -60 c0 -73 -8 -88
-46 -83 l-29 3 -3 138 c-3 138 -3 138 -25 131 -30 -9 -47 -24 -47 -40 0 -10 7
-13 26 -8 23 6 25 4 22 -17 -4 -34 -63 -41 -73 -9 -12 37 3 70 38 85 43 19
180 19 216 0z m2531 -3 c95 -50 90 -205 -9 -260 -43 -24 -129 -30 -149 -10 -8
8 -12 53 -12 135 0 122 0 123 -23 123 -23 0 -47 -17 -47 -32 0 -4 12 -8 26 -8
21 0 25 -4 22 -22 -3 -26 -41 -36 -64 -18 -32 28 -10 77 46 99 44 17 171 13
210 -7z m529 -10 c12 -23 -3 -42 -35 -42 -26 0 -39 27 -23 46 16 20 47 17 58
-4z m350 4 c16 -19 3 -46 -23 -46 -32 0 -47 19 -35 42 11 21 42 24 58 4z
m-2839 -36 c0 -24 4 -30 21 -30 11 0 18 4 14 9 -8 14 15 25 27 13 16 -16 -9
-42 -38 -42 -23 0 -24 -3 -24 -74 0 -77 10 -97 35 -76 20 17 19 1 -2 -22 -22
-25 -79 -24 -93 1 -5 11 -10 53 -10 95 0 50 -4 76 -12 80 -10 5 -9 8 2 13 8 3
26 18 40 33 33 36 40 36 40 0z m1300 0 c0 -23 4 -30 20 -30 13 0 18 5 14 15
-6 15 16 22 29 9 13 -13 -14 -44 -38 -44 -24 0 -25 -2 -25 -80 0 -79 5 -91 28
-68 9 9 12 9 12 -3 0 -24 -21 -39 -55 -39 -47 0 -55 15 -55 107 0 49 -4 83
-10 83 -20 0 -10 21 14 30 14 5 30 18 36 30 16 29 30 25 30 -10z m-1612 -42
c24 -24 13 -48 -38 -76 -55 -30 -60 -42 -30 -72 22 -22 42 -25 71 -10 27 15
25 -5 -3 -24 -65 -46 -158 4 -158 84 0 34 6 48 34 76 27 27 42 34 73 34 21 0
44 -5 51 -12z m170 0 c20 -20 15 -48 -9 -48 -16 0 -20 5 -16 20 3 13 0 20 -9
20 -25 0 -15 -35 21 -69 39 -36 45 -73 18 -103 -19 -21 -79 -24 -105 -4 -27
20 -22 25 17 19 30 -5 35 -3 35 14 0 11 -9 28 -21 39 -12 10 -28 32 -36 47
-13 25 -13 31 2 53 12 18 24 24 53 24 21 0 43 -5 50 -12z m370 -4 c19 -13 22
-24 22 -90 0 -62 3 -74 16 -74 14 0 14 -3 4 -15 -14 -17 -66 -20 -75 -5 -4 7
-12 7 -25 0 -27 -14 -66 -12 -79 4 -7 8 -11 30 -9 48 3 28 10 36 51 56 39 18
48 27 45 45 -2 14 -11 23 -25 25 -24 4 -30 -7 -13 -24 18 -18 -16 -40 -35 -24
-19 16 -19 29 2 52 20 23 90 24 121 2z m160 -72 c3 -79 4 -83 25 -80 20 3 22
10 25 71 3 59 1 67 -15 67 -17 1 -17 2 1 15 24 18 58 19 74 3 7 -7 12 -43 12
-90 0 -51 4 -78 11 -78 8 0 8 -5 -1 -15 -16 -19 -69 -20 -76 0 -5 13 -8 13
-27 0 -30 -21 -74 -19 -87 4 -5 11 -10 51 -10 90 0 46 -4 71 -11 71 -8 0 -7 5
1 16 8 9 25 14 44 12 l31 -3 3 -83z m249 73 c5 -14 7 -14 23 0 25 22 54 15 58
-14 3 -19 0 -22 -16 -17 -41 13 -52 -2 -52 -69 0 -82 -6 -95 -41 -95 l-28 0
-3 93 c-2 67 -6 91 -15 90 -7 -2 -13 1 -13 6 0 23 78 28 87 6z m263 -5 c16
-16 20 -33 20 -90 0 -45 4 -70 11 -70 8 0 8 -5 -1 -15 -15 -18 -51 -20 -68 -3
-9 9 -15 9 -24 0 -17 -17 -64 -15 -82 4 -36 35 -16 73 63 116 33 18 41 45 16
54 -8 4 -23 3 -32 -1 -12 -5 -14 -9 -5 -12 17 -7 15 -30 -4 -37 -22 -9 -34 1
-34 29 0 31 24 44 78 45 29 0 48 -6 62 -20z m148 4 c8 -14 10 -14 21 0 20 24
67 20 85 -6 19 -26 22 -128 5 -161 -15 -29 -50 -57 -72 -57 -17 0 -17 2 -3 22
11 16 16 46 16 100 0 71 -2 78 -20 78 -18 0 -20 -7 -20 -69 0 -88 -5 -101 -41
-101 l-28 0 -3 93 c-2 67 -6 91 -15 90 -7 -2 -13 1 -13 6 0 23 75 28 88 5z
m487 0 c22 -23 16 -35 -38 -69 -26 -16 -47 -36 -47 -44 0 -36 68 -69 85 -41 3
6 12 10 18 10 7 0 -1 -12 -16 -25 -56 -50 -145 -23 -163 49 -16 66 38 136 105
136 23 0 46 -7 56 -16z m693 4 c21 -21 13 -48 -19 -66 -17 -9 -40 -24 -51 -32
-19 -15 -19 -16 2 -43 23 -28 58 -35 78 -15 9 9 12 9 12 1 0 -21 -43 -43 -83
-43 -30 0 -46 7 -69 30 -28 28 -30 36 -25 78 7 61 49 102 105 102 21 0 43 -5
50 -12z m267 -11 c3 -12 5 -58 3 -102 l-3 -80 -30 0 -30 0 -3 88 c-2 71 -6 87
-19 87 -13 0 -13 3 -3 15 7 8 28 15 46 15 27 0 35 -5 39 -23z m213 11 c7 -7
12 -23 12 -36 0 -19 -5 -23 -22 -20 -15 2 -24 11 -26 26 -4 28 -17 28 -36 0
-46 -65 10 -162 73 -128 28 15 27 -4 -1 -24 -38 -27 -95 -20 -130 14 -28 28
-30 36 -25 78 7 61 49 102 105 102 21 0 43 -5 50 -12z m137 -93 l0 -100 -30 0
-30 0 -3 93 c-2 56 -7 90 -12 87 -6 -4 -10 -2 -10 4 0 13 20 20 55 18 l30 -2
0 -100z m214 79 c16 -21 21 -41 21 -90 0 -41 4 -64 11 -64 8 0 8 -5 -1 -15
-14 -17 -66 -20 -76 -4 -4 8 -9 8 -17 0 -15 -15 -70 -14 -85 1 -29 29 3 108
44 108 6 0 22 8 35 19 20 16 21 21 10 35 -14 16 -51 22 -51 8 0 -4 5 -13 10
-18 18 -18 -16 -40 -35 -24 -20 17 -19 26 5 50 31 31 102 28 129 -6z m191 11
c15 -18 6 -45 -16 -45 -11 0 -15 6 -11 20 3 13 0 20 -8 20 -30 0 -25 -24 14
-64 44 -45 52 -78 24 -108 -22 -25 -84 -24 -114 2 l-24 20 43 -6 c36 -6 42 -4
42 11 0 10 -16 35 -35 56 -39 43 -43 64 -18 91 20 22 85 24 103 3z"/>
<path d="M2258 3375 c-9 -19 -8 -29 6 -50 18 -27 36 -31 67 -15 22 12 26 59 7
78 -22 22 -67 14 -80 -13z"/>
<path d="M1981 3054 c-40 -18 -132 -81 -177 -121 -75 -67 -146 -184 -178 -292
-21 -73 -21 -83 6 -79 17 2 24 14 35 62 38 168 171 341 326 423 47 25 40 29
-12 7z"/>
<path d="M2500 2984 c101 -81 171 -185 200 -299 23 -91 25 -95 52 -95 18 0 19
4 13 38 -28 149 -130 293 -258 362 l-42 22 35 -28z"/>
<path d="M2348 2581 c-91 -7 -101 -11 -112 -48 -9 -29 25 -63 62 -63 35 0 52
16 52 51 0 23 -6 29 -37 37 l-38 10 36 1 c19 1 40 -4 47 -11 34 -34 -6 -115
-51 -103 -20 5 -20 5 -4 -5 10 -7 52 -14 93 -17 63 -5 77 -3 94 12 19 17 20
17 20 0 0 -16 7 -17 55 -12 59 6 68 2 33 -14 -18 -7 -11 -8 27 -4 43 4 47 3
31 -8 -17 -12 -17 -14 -2 -20 9 -4 16 -11 16 -16 0 -6 -16 -3 -36 5 -44 19
-99 11 -160 -21 -37 -19 -41 -25 -29 -35 8 -7 15 -19 15 -28 0 -13 -3 -13 -19
2 -46 42 -142 39 -156 -5 -6 -19 -8 -19 -30 5 -39 42 -161 48 -191 8 -12 -15
-13 -15 -14 9 0 22 -8 30 -40 43 -22 9 -52 16 -66 16 -13 0 -38 10 -53 21 -35
26 -124 31 -164 10 -27 -14 -25 -15 109 -81 74 -37 147 -78 162 -92 21 -19 50
-29 127 -42 91 -15 107 -22 175 -67 84 -57 65 -56 275 -24 146 21 270 24 287
6 11 -11 5 -12 -37 -7 l-50 6 40 -15 c22 -8 53 -15 70 -15 22 0 26 -3 17 -12
-9 -9 -7 -14 6 -24 41 -30 169 87 203 186 10 29 8 34 -33 78 -24 26 -62 74
-85 108 -73 107 -157 155 -278 161 -44 2 -106 5 -137 6 -54 3 -58 2 -58 -19 0
-13 -4 -26 -10 -29 -6 -4 -10 8 -10 29 0 41 14 38 -152 27z m112 -53 c0 -32
-15 -68 -23 -58 -7 9 5 90 14 90 5 0 9 -15 9 -32z"/>
<path d="M1596 2354 c-18 -18 -13 -34 11 -34 19 0 171 -51 237 -79 39 -17 46
-18 36 -6 -17 21 -80 53 -145 75 -31 10 -54 25 -60 38 -12 26 -56 30 -79 6z"/>
<path d="M1700 2350 c8 -5 24 -10 35 -10 17 0 17 2 5 10 -8 5 -24 10 -35 10
-17 0 -17 -2 -5 -10z"/>
<path d="M420 1449 c0 -52 2 -60 17 -57 40 8 38 118 -2 118 -12 0 -15 -13 -15
-61z"/>
<path d="M2935 1488 c-3 -13 -5 -68 -3 -123 l3 -100 30 0 c25 0 32 5 42 35 29
84 4 201 -44 208 -16 2 -24 -3 -28 -20z"/>
<path d="M682 1408 c-7 -7 -12 -23 -12 -35 0 -21 3 -22 20 -13 20 11 27 44 12
54 -5 3 -14 0 -20 -6z"/>
<path d="M1220 1325 c-15 -18 -5 -68 13 -62 14 4 23 77 9 77 -5 0 -15 -7 -22
-15z"/>
<path d="M1887 1333 c-11 -11 -8 -61 4 -69 15 -9 29 14 29 49 0 25 -17 36 -33
20z"/>
<path d="M2534 1412 c-14 -9 -27 -62 -16 -62 4 0 17 6 27 14 15 11 17 18 10
35 -6 12 -15 17 -21 13z"/>
<path d="M3221 1401 c-12 -21 -15 -51 -5 -51 3 0 14 5 25 10 23 13 25 33 5 49
-12 10 -17 8 -25 -8z"/>
<path d="M4047 1333 c-10 -9 -9 -73 1 -73 17 0 32 25 32 52 0 26 -17 37 -33
21z"/>
</g>
</svg>
