<?xml version="1.0" standalone="no"?>
<!DOCTYPE svg PUBLIC "-//W3C//DTD SVG 20010904//EN"
 "http://www.w3.org/TR/2001/REC-SVG-20010904/DTD/svg10.dtd">
<svg version="1.0" xmlns="http://www.w3.org/2000/svg"
 width="462.000000pt" height="463.000000pt" viewBox="0 0 462.000000 463.000000"
 preserveAspectRatio="xMidYMid meet">

<g transform="translate(0.000000,463.000000) scale(0.100000,-0.100000)"
fill="#000000" stroke="none">
<path d="M40 2320 l0 -2270 2270 0 2270 0 0 2270 0 2270 -2270 0 -2270 0 0
-2270z m2346 1136 c25 -25 34 -43 34 -67 0 -35 -32 -99 -50 -99 -18 0 -10 -19
20 -48 17 -16 30 -33 30 -38 0 -5 10 -21 23 -35 17 -20 38 -29 92 -38 179 -31
364 -173 444 -341 23 -47 47 -109 53 -139 10 -39 19 -56 36 -64 41 -19 22 -27
-65 -27 -56 0 -84 -3 -77 -10 5 -5 81 -11 169 -12 143 -3 160 -5 163 -21 3
-12 -9 -23 -40 -37 -24 -11 -52 -20 -63 -20 -11 0 -41 -11 -67 -24 l-48 -24
46 -51 c25 -28 52 -51 59 -51 27 0 25 -35 -6 -99 -43 -87 -152 -196 -236 -236
-48 -22 -60 -32 -51 -42 8 -10 7 -13 -5 -13 -14 0 -77 63 -77 78 0 4 7 17 15
29 14 20 13 22 -22 34 -50 16 -225 5 -323 -21 -110 -29 -132 -27 -194 20 -48
36 -159 90 -187 90 -6 0 -56 22 -112 49 -129 63 -227 98 -297 107 -77 9 -92
19 -84 52 4 15 11 32 16 39 7 9 0 16 -25 27 -19 7 -38 19 -41 25 -4 6 -19 11
-34 12 -49 1 -117 33 -117 54 0 20 10 20 428 23 273 1 427 6 427 12 0 6 -125
10 -346 10 -307 0 -345 2 -334 15 7 8 18 15 25 15 7 0 16 17 20 38 33 179 176
364 348 450 65 33 163 62 207 62 18 0 31 8 40 25 7 14 17 25 22 25 4 0 8 5 8
10 0 6 11 23 25 38 29 31 31 45 8 63 -55 46 -45 140 19 176 43 23 87 16 124
-21z m-287 -1900 c8 -9 11 -81 9 -237 l-3 -224 -33 -3 c-61 -6 -62 -2 -62 229
l0 209 -22 0 -23 1 24 19 c27 23 93 27 110 6z m-623 -21 c84 -25 134 -97 134
-196 0 -78 -19 -128 -70 -180 -51 -53 -93 -69 -187 -69 -94 0 -93 -3 -93 226
l0 194 -25 0 c-35 0 -74 -20 -81 -43 -8 -26 9 -42 32 -29 46 23 63 -35 19 -64
-44 -29 -95 5 -95 63 0 43 42 86 97 101 59 15 213 14 269 -3z m822 -17 c38
-38 -12 -93 -63 -70 -46 21 -27 82 25 82 14 0 31 -5 38 -12z m530 0 c38 -38
-12 -93 -63 -70 -46 21 -27 82 25 82 14 0 31 -5 38 -12z m-920 -124 c17 -12
22 -24 20 -47 -3 -27 -13 -37 -73 -73 -75 -44 -80 -56 -46 -104 23 -32 58 -40
100 -23 38 15 50 11 32 -11 -36 -43 -136 -59 -192 -31 -69 36 -94 156 -46 226
49 73 148 103 205 63z m400 4 c8 -8 12 -56 12 -149 0 -152 -4 -163 -62 -157
l-33 3 -3 138 c-2 129 -4 137 -22 137 -27 0 -25 14 3 28 30 15 90 15 105 0z
m327 -13 c29 -28 31 -47 9 -69 -30 -31 -64 -12 -64 36 0 34 -21 37 -49 7 -26
-28 -35 -70 -26 -125 9 -62 42 -98 89 -97 20 1 43 7 52 13 19 17 30 5 14 -15
-43 -52 -157 -60 -206 -14 -43 40 -57 76 -52 135 8 91 75 153 166 154 32 0 49
-6 67 -25z m199 9 c13 -12 16 -41 16 -148 0 -145 -4 -156 -57 -156 -46 0 -53
20 -53 159 0 101 -2 121 -15 121 -23 0 -18 19 8 30 35 14 84 11 101 -6z m305
2 c40 -21 51 -56 51 -166 0 -84 2 -98 15 -94 23 9 18 -13 -7 -30 -29 -20 -72
-20 -92 -1 -14 14 -18 14 -45 0 -71 -36 -136 -6 -136 64 0 50 29 81 99 109 53
20 69 43 55 80 -6 16 -16 22 -38 22 -30 0 -54 -21 -33 -28 18 -6 14 -40 -6
-51 -26 -14 -52 5 -52 38 0 27 20 53 50 64 30 11 112 7 139 -7z m299 -2 c31
-21 27 -68 -6 -72 -24 -4 -45 29 -24 36 23 7 11 23 -15 20 -48 -5 -41 -35 23
-99 52 -53 59 -64 59 -100 0 -57 -38 -89 -102 -89 -45 0 -113 31 -113 51 0 12
24 11 37 -2 6 -6 23 -9 39 -7 46 5 45 47 -4 100 -69 76 -78 113 -37 153 19 20
34 25 72 25 28 0 58 -7 71 -16z"/>
<path d="M2268 3405 c-9 -19 -8 -29 6 -50 18 -27 36 -31 67 -15 22 12 26 59 7
78 -22 22 -67 14 -80 -13z"/>
<path d="M1991 3084 c-40 -18 -132 -81 -177 -121 -75 -67 -146 -184 -178 -292
-21 -73 -21 -83 6 -79 17 2 24 14 35 62 38 168 171 341 326 423 47 25 40 29
-12 7z"/>
<path d="M2510 3014 c101 -81 171 -185 200 -299 23 -91 25 -95 52 -95 18 0 19
4 13 38 -28 149 -130 293 -258 362 l-42 22 35 -28z"/>
<path d="M2358 2611 c-91 -7 -101 -11 -112 -48 -9 -29 25 -63 62 -63 35 0 52
16 52 51 0 23 -6 29 -37 37 l-38 10 36 1 c19 1 40 -4 47 -11 34 -34 -6 -115
-51 -103 -20 5 -20 5 -4 -5 10 -7 52 -14 93 -17 63 -5 77 -3 94 12 19 17 20
17 20 0 0 -16 7 -17 55 -12 59 6 68 2 33 -14 -18 -7 -11 -8 27 -4 43 4 47 3
31 -8 -17 -12 -17 -14 -2 -20 9 -4 16 -11 16 -16 0 -6 -16 -3 -36 5 -44 19
-99 11 -160 -21 -37 -19 -41 -25 -29 -35 8 -7 15 -19 15 -28 0 -13 -3 -13 -19
2 -46 42 -142 39 -156 -5 -6 -19 -8 -19 -30 5 -39 42 -161 48 -191 8 -12 -15
-13 -15 -14 9 0 22 -8 30 -40 43 -22 9 -52 16 -66 16 -13 0 -38 10 -53 21 -35
26 -124 31 -164 10 -27 -14 -25 -15 109 -81 74 -37 147 -78 162 -92 21 -19 50
-29 127 -42 91 -15 107 -22 175 -67 84 -57 65 -56 275 -24 146 21 270 24 287
6 11 -11 5 -12 -37 -7 l-50 6 40 -15 c22 -8 53 -15 70 -15 22 0 26 -3 17 -12
-9 -9 -7 -14 6 -24 41 -30 169 87 203 186 10 29 8 34 -33 78 -24 26 -62 74
-85 108 -73 107 -157 155 -278 161 -44 2 -106 5 -137 6 -54 3 -58 2 -58 -19 0
-13 -4 -26 -10 -29 -6 -4 -10 8 -10 29 0 41 14 38 -152 27z m112 -53 c0 -32
-15 -68 -23 -58 -7 9 5 90 14 90 5 0 9 -15 9 -32z"/>
<path d="M1606 2384 c-18 -18 -13 -34 11 -34 19 0 171 -51 237 -79 39 -17 46
-18 36 -6 -17 21 -80 53 -145 75 -31 10 -54 25 -60 38 -12 26 -56 30 -79 6z"/>
<path d="M1710 2380 c8 -5 24 -10 35 -10 17 0 17 2 5 10 -8 5 -24 10 -35 10
-17 0 -17 -2 -5 -10z"/>
<path d="M1377 1513 c-4 -3 -7 -91 -7 -195 l0 -188 30 0 c49 0 76 35 90 119
12 74 7 169 -12 206 -27 52 -78 81 -101 58z"/>
<path d="M1790 1345 c-11 -29 -13 -75 -4 -75 3 0 19 8 35 17 24 14 29 24 27
48 -4 41 -43 48 -58 10z"/>
<path d="M3030 1241 c-12 -24 -13 -71 -1 -89 5 -8 17 -12 27 -10 16 3 20 14
22 61 3 51 1 57 -17 57 -11 0 -25 -9 -31 -19z"/>
</g>
</svg>
